<?xml version="1.0" standalone="no"?>
<!DOCTYPE svg PUBLIC "-//W3C//DTD SVG 20010904//EN"
 "http://www.w3.org/TR/2001/REC-SVG-20010904/DTD/svg10.dtd">
<svg version="1.0" xmlns="http://www.w3.org/2000/svg"
 width="100.000000pt" height="100.000000pt" viewBox="0 0 100.000000 100.000000"
 preserveAspectRatio="xMidYMid meet">
<metadata>
Created by potrace 1.11, written by Peter Selinger 2001-2013
</metadata>
<g transform="translate(0.000000,100.000000) scale(0.100000,-0.100000)"
fill="#000000" stroke="none">
<path d="M299 981 c-13 -10 -33 -20 -43 -22 -11 -2 -30 -24 -44 -49 -14 -25
-28 -47 -32 -50 -15 -11 -39 -74 -56 -146 -18 -76 -18 -77 4 -162 12 -48 35
-105 50 -127 18 -26 29 -58 32 -93 l5 -53 -28 7 c-34 7 -74 -17 -79 -47 -2
-15 12 -36 46 -70 27 -27 53 -49 57 -49 5 0 11 -11 15 -25 3 -13 12 -29 20
-36 8 -6 14 -22 14 -35 0 -25 15 -33 23 -11 4 9 6 9 6 0 1 -10 57 -13 244 -13
303 0 310 2 355 122 18 48 19 66 12 119 -10 68 -15 74 -71 83 -25 4 -39 12
-39 21 0 8 4 15 8 15 15 0 75 94 93 149 25 73 25 190 0 262 -33 92 -57 128
-121 179 l-63 50 -87 0 c-61 0 -90 -4 -93 -12 -4 -10 -6 -10 -6 0 -1 9 -28 12
-100 12 -81 0 -102 -3 -122 -19z m166 -2 c-22 -5 -44 -14 -49 -19 -13 -13 -26
-13 -26 0 0 11 54 28 90 28 16 0 11 -3 -15 -9z m30 -40 c-4 -6 -17 -15 -29
-20 -19 -8 -18 -9 6 -4 14 3 34 8 45 12 15 6 16 4 5 -9 -17 -21 -43 -27 -71
-17 -28 11 -23 31 10 40 36 10 41 10 34 -2z m212 -7 c16 -10 21 -84 6 -89 -8
-3 -13 4 -13 16 0 12 -7 24 -15 27 -8 4 -15 17 -15 30 0 24 15 30 37 16z
m-307 -6 c0 -3 -4 -8 -10 -11 -5 -3 -10 -1 -10 4 0 6 5 11 10 11 6 0 10 -2 10
-4z m-3 -58 c-3 -7 -5 -2 -5 12 0 14 2 19 5 13 2 -7 2 -19 0 -25z m-115 0 c-7
-7 -12 -8 -12 -2 0 14 12 26 19 19 2 -3 -1 -11 -7 -17z m502 -13 c-4 -8 -10
-15 -14 -15 -4 0 -6 -12 -3 -27 3 -24 2 -25 -6 -8 -9 18 -10 18 -10 2 -1 -10
-5 -15 -11 -12 -5 3 -10 2 -10 -4 0 -5 5 -11 11 -13 5 -2 7 -11 4 -20 -9 -22
-35 -12 -35 13 0 11 -7 19 -17 19 -14 0 -12 4 7 25 13 14 30 23 37 21 7 -3 10
1 7 9 -5 11 7 19 38 24 4 0 5 -6 2 -14z m45 -102 c0 -25 -1 -26 -9 -8 -12 27
-12 35 0 35 6 0 10 -12 9 -27z m-516 -2 c3 8 6 4 6 -9 1 -18 4 -21 19 -13 22
12 82 16 104 7 9 -4 25 -3 37 3 29 16 41 13 41 -9 0 -17 5 -19 25 -14 16 4 25
2 25 -6 0 -6 -8 -14 -19 -17 -12 -3 -17 -11 -14 -22 3 -13 -2 -16 -24 -15 -15
1 -38 -5 -50 -12 -32 -20 -60 -17 -85 8 -21 21 -21 22 -2 29 16 6 16 8 2 8 -9
1 -28 -3 -42 -9 -19 -7 -26 -6 -26 3 0 9 -3 8 -9 -1 -7 -11 -9 -11 -14 2 -9
22 4 81 13 66 6 -9 9 -9 13 1z m-126 -33 c-3 -8 -6 -5 -6 6 -1 11 2 17 5 13 3
-3 4 -12 1 -19z m40 -35 c-3 -10 -5 -2 -5 17 0 19 2 27 5 18 2 -10 2 -26 0
-35z m553 -24 c0 -5 -7 -9 -15 -9 -9 0 -12 6 -9 15 6 15 24 11 24 -6z m-466
-15 c3 -8 2 -12 -4 -9 -6 3 -10 10 -10 16 0 14 7 11 14 -7z m522 -15 c-3 -17
-6 -51 -6 -75 0 -33 -4 -44 -16 -44 -12 0 -14 -7 -9 -30 l7 -30 -32 32 c-29
28 -30 33 -16 43 9 7 16 17 16 22 0 6 7 16 15 23 9 8 12 22 8 42 -4 20 -1 33
8 39 25 16 32 10 25 -22z m-308 -10 c-19 -13 -28 -11 -28 5 0 9 7 12 21 9 16
-4 17 -8 7 -14z m-321 -151 c-3 -7 -5 -2 -5 12 0 14 2 19 5 13 2 -7 2 -19 0
-25z m336 -18 c-4 -14 -13 -20 -32 -19 -15 1 -19 3 -10 6 10 2 19 13 22 25 3
11 10 17 15 14 6 -3 8 -15 5 -26z m-63 -6 c0 -14 -3 -14 -15 -4 -8 7 -15 14
-15 16 0 2 7 4 15 4 8 0 15 -7 15 -16z m-200 -18 c0 -3 -4 -8 -10 -11 -5 -3
-10 -1 -10 4 0 6 5 11 10 11 6 0 10 -2 10 -4z m421 -51 c7 18 8 18 8 2 1 -11
6 -15 13 -11 7 4 8 3 4 -5 -4 -6 -12 -9 -17 -6 -5 4 -9 -2 -10 -12 0 -16 -1
-16 -9 2 -5 11 -8 27 -8 35 0 8 3 6 6 -5 l5 -20 8 20z m-141 -33 c0 -4 12 -9
27 -10 45 -4 45 -24 1 -26 -13 -1 -28 -5 -35 -9 -11 -7 -43 17 -43 33 0 5 8
11 18 13 28 8 32 7 32 -1z m-142 -27 c-3 -3 -9 2 -12 12 -6 14 -5 15 5 6 7 -7
10 -15 7 -18z m259 3 c-3 -8 -6 -5 -6 6 -1 11 2 17 5 13 3 -3 4 -12 1 -19z
m-398 3 c11 -7 10 -13 -4 -35 -10 -14 -18 -26 -19 -26 -1 0 -3 16 -4 35 -3 36
3 41 27 26z m507 -46 c-12 -40 -26 -46 -26 -12 -1 16 -5 11 -15 -16 -7 -21
-17 -42 -21 -45 -4 -4 -4 1 -1 11 4 10 7 25 7 33 0 16 44 64 58 64 5 0 4 -16
-2 -35z m-81 -50 c-19 -57 -23 -62 -18 -29 3 25 1 44 -6 48 -20 13 -12 34 17
44 15 5 28 9 29 8 1 -1 -9 -33 -22 -71z m161 63 c5 -7 3 -8 -6 -3 -10 6 -12 3
-8 -13 4 -12 2 -22 -3 -22 -5 0 -9 11 -9 25 0 26 14 33 26 13z m-496 -19 c0
-3 -9 -14 -20 -24 -20 -18 -20 -17 -20 8 0 20 5 25 20 24 11 -1 20 -4 20 -8z
m-70 -25 c0 -14 -4 -23 -9 -20 -5 3 -7 15 -4 26 7 28 13 25 13 -6z m-155 -3
c-3 -6 -11 -11 -17 -11 -6 0 -6 6 2 15 14 17 26 13 15 -4z m329 7 c27 -1 44
-10 58 -28 18 -22 18 -25 3 -28 -9 -2 -38 6 -65 17 -27 12 -57 21 -66 21 -16
0 -16 1 1 14 11 8 22 13 26 11 3 -2 23 -5 43 -7z m153 -22 c-3 6 0 11 7 11 10
0 12 -8 5 -31 -5 -17 -9 -33 -9 -35 0 -2 -11 0 -25 3 -19 5 -23 3 -19 -9 6
-15 -19 -48 -30 -38 -3 4 -6 -3 -6 -15 0 -12 -4 -22 -10 -22 -17 0 -11 21 26
87 31 56 38 62 52 51 9 -7 13 -8 9 -2z m207 -30 c-3 -15 -8 -25 -11 -23 -2 3
-1 17 3 31 3 15 8 25 11 23 2 -3 1 -17 -3 -31z m-411 -12 c3 -4 1 -16 -5 -28
-7 -11 -11 -24 -10 -28 4 -13 -16 -9 -21 5 -2 7 -10 0 -17 -15 -14 -29 -30
-37 -30 -15 0 24 51 87 70 87 4 0 10 -3 13 -6z m-127 -102 c-11 -10 -14 3 -8
33 l7 30 3 -28 c2 -16 1 -31 -2 -35z m397 43 c-3 -9 -8 -14 -10 -11 -3 3 -2 9
2 15 9 16 15 13 8 -4z"/>
<path d="M370 720 c0 -5 7 -10 15 -10 8 0 15 5 15 10 0 6 -7 10 -15 10 -8 0
-15 -4 -15 -10z"/>
</g>
</svg>
